<svg clip-rule="evenodd" fill-rule="evenodd" height=".788in" image-rendering="optimizeQuality" shape-rendering="geometricPrecision" text-rendering="geometricPrecision" viewBox="0 0 788 788" width=".788in" xmlns="http://www.w3.org/2000/svg"><g fill="#04923c"><path d="m0 548v23c2 7 1 32 18 77 11 28 26 54 44 75 10 13 23 25 37 36 33 26 59 25 67 29h86c4-2 11-2 15-4 44-10 83-48 106-84 9-14 17-28 24-44 69-165-43-266-169-206-13 6-17 11-22 8-16-8-30-15-49-20-44-11-82-3-111 18-44 32-42 81-46 92z"/><path d="m788 682v-554c-1-1 0 0-1-2 0-1 0 0-1-2 0-1 0-2 0-3-1-2-1-5-2-7-12-33-41-46-78-45 5 22 2 23 4 32 19 0 34 3 42 22 5 11 3 44 3 59v124c0 9 1 359 0 373-2 15-16 29-32 30-19 2-45 1-64 1-84 0-169-1-254 0l-22 32c39 1 78 0 117 0h117c20 0 102 1 115-2 49-9 53-53 56-58z"/><path d="m474 76c-9-48 65-61 74-14 9 48-65 61-74 14zm46-76h-18c-6 3-16 4-24 8-7 4-15 10-19 14-10 12-18 26-19 47-14 0-77-2-85 2-13 6-10 19-10 34 0 22-5 49 11 54 7 2 256 1 287 1 40 0 34-4 34-54 0-15 3-29-9-35-8-4-72-2-87-2-1-28-13-48-36-61-9-5-19-5-25-8z"/><path d="m95 375c2 1 1 1 2 2l11 10h1v1h1l7 4c19 10 44 10 65 4 6-2 6-7 8-13s3-12 4-18c6-65-55-88-123-92 0 19 1 40 5 58 7 29 18 39 19 44z"/><path d="m234 290c3-1 4-2 7-4 9-6 14-10 26-13 0-36 0-72 0-108 0-16-3-35 6-48 8-12 20-16 39-16 1-6 0-12 1-17 0-6 1-10 2-15-27 0-42 3-58 18-13 12-23 27-23 53 0 50 1 100 0 150z"/><path d="m449 369v10c1 85 0 170 0 255 0 7-2 22 3 26 3 2 9 2 11-1 3-4 2-7 2-12 0-61 1-418-1-423-3-7-15-7-15 4-1 9 0 19 0 28 0 37-1 76 0 113z"/><path d="m336 244c-22 1-26-5-26 19s4 18 26 19c1 22-5 25 20 25 23 0 18-1 19-25 22-2 26 6 26-19 0-24-4-18-26-19-1-22 5-25-19-25-25 0-19 3-20 25z"/><path d="m233 384c1-6 4-11 7-16l8-13 2-2c1-5 14-16 18-20 11-8 20-10 19-19 0-6-4-10-9-10-6-1-10 2-13 5-24 16-39 35-52 63-6 13-15 44-14 60 6 5 9 7 15 4 10-6 6-4 8-16 2-7 7-31 11-36z"/><path d="m698 312h-174c-18 0-13 12-10 14 5 4 86 2 95 2 8 0 91 1 95-1 7-2 8-15-6-15z"/><path d="m693 448c8 1 18 0 16-9s-12-7-21-7-18 0-27 0h-107c-9 0-18 0-27 0s-17 0-16 10c2 8 13 6 21 6z"/><path d="m511 502c2 8 13 7 21 7h161c8 0 18 0 16-10-2-8-12-6-21-6h-161c-8 0-17 0-16 9z"/><path d="m511 562c2 8 12 7 20 7h162c4 0 9 0 12-1 2-1 4-5 4-8-1-9-11-7-20-7h-162c-8 0-17 0-16 9z"/><path d="m511 623c2 7 12 6 20 6h162c8 0 17 0 16-9-1-8-11-7-20-7h-162c-8 0-17 0-16 10z"/><path d="m524 268h174c15 0 15-16 0-16h-176c-14 0-16 16 2 16z"/><path d="m511 380c1 5 2 6 5 8h187c8-5 8-11 0-16-32-1-67 1-99 0h-75c-10 0-15-1-18 8z"/><path d="m302 380c0 5 1 6 5 8h97l5-4c1-4 1-6-1-10-2 0-2 0-4-2-18 0-37 0-55 0-9 0-18 0-28 0s-17-2-19 8z"/></g></svg>