<svg clip-rule="evenodd" fill-rule="evenodd" height=".699in" image-rendering="optimizeQuality" shape-rendering="geometricPrecision" text-rendering="geometricPrecision" viewBox="0 0 1011 699" width="1.01099in" xmlns="http://www.w3.org/2000/svg"><g fill="#04923c"><path d="m923 588c-14 0-33-8-47-6-11 1-24 12-34 18-134 79-298-10-306-159-3-66 25-121 56-154 126-136 356-54 354 138-1 74-37 97-34 123 1 12 9 27 11 40zm-833-5c3-18 13-44 18-62 4-14 2-22-4-33-27-46-41-95-39-155 5-180 174-301 344-260 40 10 79 29 106 50 22 17 67 60 74 81-5 5-14 11-19 15-8 6-12 11-18 17-86 86-107 219-46 325 3 6 10 16 12 21-18 17-68 37-96 44-76 19-160 3-224-39-17-11-22-21-49-15-19 3-40 8-59 11zm557-410c-5-6-11-16-15-21-32-47-80-89-133-115-69-33-149-47-235-28-191 43-303 239-251 428 5 18 11 36 18 52 14 29 14 18 3 51-5 18-10 36-16 55s-14 37 2 53c14 15 36 8 56 4s39-8 59-12c14-2 17-6 27 1 51 35 125 58 188 58 46 0 82-6 122-20 53-19 82-45 91-48 73 61 182 87 289 37 11-5 22-11 31-17 18-11 88 30 112 1 9-11 9-22 4-37-3-12-7-24-11-36-14-46-10-22 7-69 54-149-33-310-186-348-40-10-84-10-126 0-12 3-26 9-36 11z"/><path d="m315 150c-110 17-132 111-93 135 18 10 46 9 61-15 12-21 14-42 41-46 29-5 52 7 52 35 0 37-59 52-81 93-20 36-4 80 41 74 14-2 22-9 27-18 14-23 1-23 38-49 17-11 36-26 47-40 14-18 23-36 22-65-1-27-11-49-24-63-25-27-79-49-131-41z"/><path d="m321 445c-66 12-48 109 17 98 25-4 46-28 41-58-4-24-28-46-58-40z"/><path d="m770 435c12-39-46-57-59-20-13 40 47 59 59 20z"/><path d="m855 435c13-40-48-56-59-19-12 40 47 57 59 19z"/><path d="m685 432c9-39-50-53-59-15-11 41 50 56 59 15z"/></g></svg>