<svg clip-rule="evenodd" fill-rule="evenodd" height=".816in" image-rendering="optimizeQuality" shape-rendering="geometricPrecision" text-rendering="geometricPrecision" viewBox="0 0 834 816" width=".834in" xmlns="http://www.w3.org/2000/svg"><g fill="#04923c"><path d="m156 61c-9 1-59 0-73 0-26 0-46-3-63 12-16 14-19 26-19 55v447c0 24-2 52 0 75 1 22 15 38 30 45 17 8 49 5 70 5h223c25 0 51 1 75 0-2-8-5-16-8-24-2-9-4-19-5-28-29 0-331 1-333-1-2-1 0-100 0-102v-209c0-34-1-70 0-104h589v153c9 2 18 3 27 5 6 2 21 7 25 7-1-82 0-164 0-246 0-17 2-42-4-57-6-14-17-25-32-30-21-7-97 0-120-3-1-51 8-61-19-61-40 0-34-5-34 46 0 11-1 74 0 79 2 11 22 8 33 8 21 0 19-2 21-20h102c2 5 1 65 0 74h-588c0-2-2-72 0-73 4-2 93-1 103-1 1 7-1 12 4 16 4 5 9 4 16 4 11 0 32 3 34-8l-1-118c-2-10-23-7-34-7-26 0-17 11-19 61z"/><path d="m802 545c-7 6-12 13-18 19-15 16-13 9-10 22 12 63-15 122-60 158-27 21-69 37-115 32-36-4-75-22-99-48-111-123 0-302 151-269 10 3 19 6 28 9 10 4 20 11 24 13 3-1 13-10 16-13s13-10 15-13c-3-1-10-7-14-9-39-23-80-34-127-28-60 6-101 36-132 71-3 3-6 8-9 13-20 29-33 59-36 98-7 97 55 185 150 210 141 36 273-87 246-231-1-6-2-12-4-18-1-3-2-6-3-9s-1-5-3-7z"/><path d="m616 593c-25-19-52-44-76-62-21-16-46 9-29 30 3 3 5 7 8 11 6 7 12 14 17 22 6 8 12 15 18 23 5 7 11 14 17 22 13 16 22 35 41 37 6 1 12 0 17-3 6-2 15-12 21-18l24-26c2-1 4-3 6-5 7-6 13-13 19-20s13-13 20-20c6-6 13-15 19-20 7-6 13-13 19-20l20-19c7-8 13-14 19-21l29-30c4-4 7-5 8-12 3-12-5-21-14-23-12-3-18 5-28 13z"/><path d="m117 333c-8 3-6 11-6 19v52c0 9 1 16 9 17 8 0 101 0 103-1 8-2 7-10 7-19v-52c0-9 0-16-9-17s-100-1-104 1z"/><path d="m294 332c-8 3-7 10-7 20v51c0 9 1 17 10 18 7 0 100 0 103-1 8-2 7-10 7-19v-51c0-9 0-17-9-18-6-1-101 0-104 0z"/><path d="m125 578h94c11 0 11-7 11-17v-55c0-11-1-17-13-17h-94c-11 0-12 7-12 17v57c0 11 2 15 14 15z"/><path d="m387 578c1-10 5-26 8-35 7-22 12-18 12-42 0-15-14-12-28-12h-79c-16 1-13 14-13 28v40c0 19-1 21 19 21 27 0 54 1 81 0z"/><path d="m255 113h182v-52h-182z"/><path d="m584 385c0-8 2-44-2-49-4-6-15-4-23-4h-77c-22 0-17 6-17 35 0 9-2 44 2 50 3 5 15 5 22 4 4-1 13-7 17-10 19-9 35-16 56-21 6-1 17-2 22-5z"/></g></svg>